<svg xmlns="http://www.w3.org/2000/svg" xmlns:xlink="http://www.w3.org/1999/xlink" width="72" height="72" viewBox="0 0 72 72">
  <defs>
    <filter id="Ellipse_7" x="0" y="0" width="72" height="72" filterUnits="userSpaceOnUse">
      <feOffset dy="3" input="SourceAlpha"/>
      <feGaussianBlur stdDeviation="3" result="blur"/>
      <feFlood flood-color="#5f82e2" flood-opacity="0.161"/>
      <feComposite operator="in" in2="blur"/>
      <feComposite in="SourceGraphic"/>
    </filter>
  </defs>
  <g id="Group_294" data-name="Group 294" transform="translate(-159 -830)">
    <g transform="matrix(1, 0, 0, 1, 159, 830)" filter="url(#Ellipse_7)">
      <circle id="Ellipse_7-2" data-name="Ellipse 7" cx="27" cy="27" r="27" transform="translate(9 6)" fill="#5f82e2" opacity="0.1"/>
    </g>
    <g id="award" transform="translate(145.659 851.375)">
      <g id="Group_7" data-name="Group 7" transform="translate(39.995)">
        <g id="Group_6" data-name="Group 6" transform="translate(0)">
          <path id="Path_18" data-name="Path 18" d="M58.859,19.889l-2.4-3.088a3.477,3.477,0,0,0,1.9-1.407,4.66,4.66,0,0,0,.062-3.324,9.078,9.078,0,0,1-.267-1.808,9.075,9.075,0,0,1,.267-1.809,4.664,4.664,0,0,0-.062-3.322,4.7,4.7,0,0,0-2.906-1.748,8.453,8.453,0,0,1-1.641-.643A8.019,8.019,0,0,1,52.5,1.675,4.754,4.754,0,0,0,49.469,0a4.757,4.757,0,0,0-3.027,1.674,8.021,8.021,0,0,1-1.314,1.066,8.451,8.451,0,0,1-1.64.641A4.7,4.7,0,0,0,40.58,5.13a4.66,4.66,0,0,0-.062,3.324,9.075,9.075,0,0,1,.267,1.809,9.074,9.074,0,0,1-.267,1.809,4.664,4.664,0,0,0,.062,3.322,3.477,3.477,0,0,0,1.9,1.406l-2.4,3.088a.395.395,0,0,0,.361.634l2.822-.352.7,2.438a.4.4,0,0,0,.3.279.4.4,0,0,0,.075.007.4.4,0,0,0,.312-.152L47.17,19.5a3.088,3.088,0,0,0,4.6,0l2.521,3.241a.4.4,0,0,0,.312.154.4.4,0,0,0,.075-.007.4.4,0,0,0,.3-.279l.7-2.437,2.822.352a.395.395,0,0,0,.361-.634ZM44.5,21.643l-.576-2.015a.4.4,0,0,0-.428-.283l-2.21.276,1.981-2.547.218.07a8.45,8.45,0,0,1,1.639.641,8.018,8.018,0,0,1,1.315,1.066l.136.126Zm4.966-1.907a4.086,4.086,0,0,1-2.491-1.464A8.7,8.7,0,0,0,45.522,17.1a9.152,9.152,0,0,0-1.8-.71A4.115,4.115,0,0,1,41.263,15a4.089,4.089,0,0,1,.026-2.763,9.666,9.666,0,0,0,.285-1.974,9.662,9.662,0,0,0-.285-1.974,4.089,4.089,0,0,1-.026-2.763,4.12,4.12,0,0,1,2.461-1.391,9.155,9.155,0,0,0,1.8-.71,8.7,8.7,0,0,0,1.456-1.171A4.088,4.088,0,0,1,49.469.789,4.086,4.086,0,0,1,51.96,2.253a8.7,8.7,0,0,0,1.456,1.171,9.152,9.152,0,0,0,1.8.71,4.115,4.115,0,0,1,2.461,1.391,4.089,4.089,0,0,1-.026,2.763,9.666,9.666,0,0,0-.285,1.974,9.662,9.662,0,0,0,.285,1.974A4.089,4.089,0,0,1,57.674,15a4.12,4.12,0,0,1-2.461,1.391,9.155,9.155,0,0,0-1.8.71,8.7,8.7,0,0,0-1.456,1.171A4.088,4.088,0,0,1,49.469,19.736Zm5.972-.392a.4.4,0,0,0-.428.283l-.578,2.015L52.36,18.976l.136-.126a8.021,8.021,0,0,1,1.314-1.066,8.451,8.451,0,0,1,1.64-.641l.218-.07,1.981,2.547Z" transform="translate(-39.995)" fill="#5f82e2"/>
        </g>
      </g>
      <g id="Group_9" data-name="Group 9" transform="translate(42.364 3.158)">
        <g id="Group_8" data-name="Group 8" transform="translate(0)">
          <path id="Path_19" data-name="Path 19" d="M95.1,64a7.1,7.1,0,1,0,7.1,7.1A7.1,7.1,0,0,0,95.1,64Zm0,13.42A6.315,6.315,0,1,1,101.42,71.1,6.315,6.315,0,0,1,95.1,77.42Z" transform="translate(-88 -64)" fill="#5f82e2"/>
        </g>
      </g>
      <g id="Group_11" data-name="Group 11" transform="translate(44.762 5.446)">
        <g id="Group_10" data-name="Group 10" transform="translate(0)">
          <path id="Path_20" data-name="Path 20" d="M145.876,113.544a.789.789,0,0,0-.638-.325h-2.416l-.75-2.3a.789.789,0,0,0-1.5,0l-.748,2.3h-2.418a.789.789,0,0,0-.465,1.428l1.956,1.421-.747,2.3a.789.789,0,0,0,1.215.883l1.957-1.421,1.957,1.421a.789.789,0,0,0,1.215-.883l-.747-2.3,1.956-1.421A.789.789,0,0,0,145.876,113.544ZM143.05,115.6a.4.4,0,0,0-.143.442l.836,2.573-2.189-1.59a.4.4,0,0,0-.464,0l-2.189,1.59.836-2.573a.4.4,0,0,0-.143-.441l-2.188-1.59h2.7a.4.4,0,0,0,.375-.273l.836-2.573.836,2.572a.4.4,0,0,0,.375.273h2.7Z" transform="translate(-136.616 -110.376)" fill="#5f82e2"/>
        </g>
      </g>
    </g>
  </g>
</svg>
