<svg xmlns="http://www.w3.org/2000/svg" viewBox="0 0 175.66 308.6">
  <defs>
    <style>
      .cls-1 {
        isolation: isolate;
      }

      .cls-2 {
        fill: #7b8f96;
      }

      .cls-3 {
        fill: #fab29a;
      }

      .cls-4 {
        fill: #cc8a79;
      }

      .cls-10, .cls-4 {
        opacity: 0.5;
      }

      .cls-10, .cls-12, .cls-4 {
        mix-blend-mode: multiply;
      }

      .cls-5 {
        fill: #fff;
      }

      .cls-6 {
        fill: #b9babc;
      }

      .cls-7 {
        fill: #5f82e2;
      }

      .cls-8 {
        fill: none;
        stroke: #d9d9db;
        stroke-linecap: round;
        stroke-miterlimit: 10;
      }

      .cls-9 {
        fill: #3c5491;
      }

      .cls-10 {
        fill: #086a7d;
      }

      .cls-11 {
        fill: #8198d4;
      }

      .cls-12 {
        fill: #a7c3d1;
      }

      .cls-13 {
        fill: #280600;
      }

      .cls-14 {
        fill: #94abb3;
      }

      .cls-15 {
        fill: #bad0d8;
      }

      .cls-16 {
        fill: #5c96c2;
      }

      .cls-17 {
        fill: #d89b87;
      }

      .cls-18 {
        fill: #e29386;
      }
    </style>
  </defs>
  <title>Asset 1</title>
  <g class="cls-1">
    <g id="Layer_2" data-name="Layer 2">
      <g id="OBJECTS">
        <g>
          <path class="cls-2" d="M15.86,115.06l-1.7-3.57s1.78-3.46,9.06-4.82,11.48-1.42,14.82.77l0,3.62Z"/>
          <g>
            <path class="cls-3" d="M46.44,73.4a2.12,2.12,0,0,0-2-1.29,5.13,5.13,0,0,0-2.39.7,15.1,15.1,0,0,0-6,5.68c-.6,1-.64,1.34-1.61,1.79a8.74,8.74,0,0,0-1,.52l-.56-2.5-.16-.74-.95-4.4-2-16.29c-.59-3-1.31-6.58-4.51-5.89-3.71.8-1,23-.95,23.34l-.14,0-.47.1C18.83,49,16.22,48.38,13.54,50.27,11,52,17.22,72,18.6,76.33l-.22.12-.26.15-.1.06v0C12.13,58.07,8.18,53.32,5,55.78c-2.2,1.71,4.8,17.27,7.91,23.86-.13.11-.28.23-.42.37l-.2.16C8.67,74.13,2.68,61,.16,65.41c-1.3,2.28,5.76,14.09,8.73,18.87v.12c0,.39.1.87.18,1.41a57.56,57.56,0,0,0,1.13,5.68c.13.52.29,1.06.46,1.61,1.08,3.57,2.76,7.11,5.31,8.68a14.06,14.06,0,0,0,1.79.94l.82,5,2.18,13.11,0,.19,14.91-3-.44-2.13-1.88-9.18-1-5c.49-.52,4.74-4.32,6-8.59,1-3.2,1.63-6.2,3.15-9.17s3.27-5.76,4.67-8.76a3.66,3.66,0,0,0,.23-.63A2.08,2.08,0,0,0,46.44,73.4Z"/>
            <path class="cls-4" d="M35.25,115.87,20.76,120.8l-2.18-13.11c3.27-.16,10.33-.53,14.79-1Z"/>
            <path class="cls-4" d="M33.48,80.8S24.6,82.52,24,90c0,0-2.9-6.46,8.88-11.67Z"/>
            <path class="cls-4" d="M27.27,73.85a38.7,38.7,0,0,0-13.63,6.67,14.33,14.33,0,0,0-4.57,5.29c-.08-.54-.13-1-.18-1.41v-.12A23.29,23.29,0,0,1,12.52,80c.14-.14.29-.26.42-.37a26.39,26.39,0,0,1,5.07-3l.59-.29a41.19,41.19,0,0,1,5.61-2l.14,0Z"/>
          </g>
          <path class="cls-5" d="M175.54,161.59c-1.92-27.08-19.18-62.9-19.18-62.9C154.62,95.27,141.85,94,141.85,94l-6.24,5.81s-.45,36.86,9.43,35.62c.38,0,3.23,6.86,5.78,13.52,1.62,4.24,1.74,11.93,2.41,14.17a13.76,13.76,0,0,1,.35,1.41l2.34,67.37,19.51.64S175.88,166.38,175.54,161.59Z"/>
          <path class="cls-6" d="M127.76,218.15v25C116,248.9,98.41,253.42,86.45,256.08V218.15Z"/>
          <path class="cls-5" d="M69.51,138.81l-1.08-.08c-.47,1.57-1.14,3.73-2,6.2-1.09,3.29-2.46,7.16-4,11.1C57.52,168.37,51,179.92,39.31,179.28c-12.81-.7-25.15-67.79-25.15-67.79,8.91-.27,23.88-4,23.88-4,1.6,2.09,4.27,34.14,4.27,34.14l1.45-4.6,11.58-36.81c1.42-3.56,14-5.94,14-5.94l6.74,5.23S79.5,139.15,69.51,138.81Z"/>
          <path class="cls-7" d="M147,127.22a113.82,113.82,0,0,0,1.91-12.8,108.63,108.63,0,0,0,0-18.64,31.47,31.47,0,0,1-10.31-3.18c-6.09-2.9-14-8.42-21.49-8.86H97.07c-7.45.44-15.4,6-21.49,8.86a31.49,31.49,0,0,1-10.32,3.18,108.54,108.54,0,0,0,0,18.64,113.82,113.82,0,0,0,1.91,12.8c.26,4.08.59,9.56.83,15s.38,10.78.27,14.63c-.15,5.7-.54,18.07-.9,29s-.66,20.44-.66,20.44,5,.45,11.94.91,15.66.95,23.1,1h10.64c7.45-.09,16.21-.57,23.11-1s11.94-.91,11.94-.91-.32-9.51-.67-20.44-.74-23.31-.9-29c-.1-3.85,0-9.21.28-14.63S146.74,131.3,147,127.22Z"/>
          <path class="cls-3" d="M114.83,69.05V91.37a11.52,11.52,0,0,1-.16,1.66H99.57a9.57,9.57,0,0,1-.19-1.76V69.05Z"/>
          <path class="cls-4" d="M114.83,69.05V82.28a56.47,56.47,0,0,1-15.45-3.79V69.05Z"/>
          <line class="cls-8" x1="149.58" y1="213.83" x2="133.26" y2="213.83"/>
          <polygon class="cls-9" points="116.42 202.36 112.74 210.97 107.1 223.68 101.46 210.97 97.79 202.36 103.33 105.31 103.57 101.04 104.08 99.4 110.12 99.4 110.64 101.04 110.82 104.23 116.42 202.36"/>
          <path class="cls-10" d="M110.82,104.23a29,29,0,0,1-7.49,1.08l.24-4.27.51-1.64h6l.52,1.64Z"/>
          <path class="cls-9" d="M108.5,90.1c0,.15-.73,0-1.2-.06V90l-.2,0-.19,0V90c-.47.09-1.2.21-1.2.06l-5.39,5.61,3.06,7.07h7.45l3-7.07Z"/>
          <path class="cls-11" d="M122.18,84.13,115,81.05l-7.85,8.79-7.84-8.79L92,84.13l6.85,14.39c1.55-3.11,7.62-7.55,8.22-8.45.61.9,6.83,5.49,8.38,8.59Z"/>
          <path class="cls-5" d="M154,308.6H112.84A22.59,22.59,0,0,1,107.9,299a21.42,21.42,0,0,1-.41-2.25h-.79c-.09.76-.22,1.5-.37,2.19a22.69,22.69,0,0,1-5,9.62H60.18s-.37-89.27,6-112.06c0,0-.91-17.95-1.71-38.76-.18-4.36-.33-8.85-.48-13.34-.77-22.73-1.16-45.14,0-49,0,0,3.26-1.54,7.76-3.38.81-.33,1.64-.68,2.51-1,2.12-.85,4.44-1.7,6.74-2.47,1.56-.81,3.24-1.66,4.75-2.38.71-.35,1.39-.66,2-.93s1.27-.57,1.76-.74a14.43,14.43,0,0,1,3.07-.64c-.36,1.24-1.2,3.65-2.16,6.94a100.13,100.13,0,0,0-3.7,18.89C86.14,117,90.8,130,95.62,141c1.23,2.84,2.58,5.56,3.92,8a127.36,127.36,0,0,0,6.79,11.21c.12.19.25.36.34.51l.43.59s.3-.41.8-1.15c.88-1.29,2.41-3.62,4.19-6.61a118.08,118.08,0,0,0,6.5-12.58c4.82-11.08,9.48-24,8.82-31.35a101.75,101.75,0,0,0-3.7-18.89c-1-3.29-1.8-5.7-2.17-6.94a14.41,14.41,0,0,1,3.08.64c1.8.66,5.4,2.46,8.5,4,2.3.77,4.6,1.62,6.74,2.47.85.33,1.7.68,2.49,1,4.5,1.84,7.76,3.38,7.76,3.38,1.62,5.17.41,43.05-.75,70.93-.27,6.55-.54,12.55-.76,17.43-.36,7.78-.61,12.77-.61,12.77C154.4,219.33,154,308.6,154,308.6Z"/>
          <g>
            <path class="cls-12" d="M106.56,160.79c-19-7.53-31.7-27-31.7-27l7.74-4.46-9.85-4.47a179.88,179.88,0,0,1,5.91-24.53,60.35,60.35,0,0,1,7.07-14.2c.7-.35,1.38-.66,2-.93s1.28-.57,1.76-.74a14.71,14.71,0,0,1,3.07-.64c-.36,1.24-1.19,3.65-2.15,6.94a98.56,98.56,0,0,0-3.7,18.89C86,117,90.69,130,95.5,141A124.82,124.82,0,0,0,106.56,160.79Z"/>
            <path class="cls-12" d="M107.65,160.79c19.06-7.53,31.7-27,31.7-27l-7.74-4.46,9.85-4.47a179.88,179.88,0,0,0-5.91-24.53,60.35,60.35,0,0,0-7.07-14.2c-.7-.35-1.38-.66-2-.93s-1.27-.57-1.76-.74a14.57,14.57,0,0,0-3.07-.64c.36,1.24,1.19,3.65,2.15,6.94a98.56,98.56,0,0,1,3.7,18.89c.67,7.34-4,20.27-8.81,31.35A124.82,124.82,0,0,1,107.65,160.79Z"/>
          </g>
          <g>
            <path class="cls-5" d="M107.1,161.38C93.64,153.32,78.44,133,78.44,133l7.69-4.53L75.1,123s-.19-2,3-16.53a58.13,58.13,0,0,1,9.77-21.23c.67-.31,1.27-.57,1.76-.74a14.43,14.43,0,0,1,3.07-.64c-.36,1.24-1.2,3.65-2.16,6.94a100.13,100.13,0,0,0-3.7,18.89C86.14,117,90.8,130,95.62,141A123.75,123.75,0,0,0,107.1,161.38Z"/>
            <path class="cls-5" d="M107.1,161.38c13.46-8.06,28.65-28.34,28.65-28.34l-7.68-4.53,11-5.51s.19-2-3-16.53a58.14,58.14,0,0,0-9.76-21.23c-.68-.31-1.28-.57-1.76-.74a14.71,14.71,0,0,0-3.07-.64c.36,1.24,1.19,3.65,2.15,6.94a98.56,98.56,0,0,1,3.7,18.89c.66,7.34-4,20.27-8.81,31.35A123.75,123.75,0,0,1,107.1,161.38Z"/>
          </g>
          <path class="cls-12" d="M107.9,160.23V299a21.42,21.42,0,0,1-.41-2.25h-.79c-.09.76-.22,1.5-.37,2.19V160.28c.12.19.25.36.34.51l.43.59S107.4,161,107.9,160.23Z"/>
          <path class="cls-12" d="M114.73,172.41a2.23,2.23,0,1,1-2.23-2.23A2.23,2.23,0,0,1,114.73,172.41Z"/>
          <path class="cls-12" d="M114.73,188.68a2.23,2.23,0,1,1-2.23-2.23A2.23,2.23,0,0,1,114.73,188.68Z"/>
          <path class="cls-12" d="M114.73,205a2.23,2.23,0,1,1-2.23-2.23A2.23,2.23,0,0,1,114.73,205Z"/>
          <path class="cls-12" d="M114.73,221.22A2.23,2.23,0,1,1,112.5,219,2.23,2.23,0,0,1,114.73,221.22Z"/>
          <path class="cls-12" d="M114.73,237.49a2.23,2.23,0,1,1-2.23-2.23A2.23,2.23,0,0,1,114.73,237.49Z"/>
          <path class="cls-12" d="M114.73,253.76a2.23,2.23,0,1,1-2.23-2.23A2.23,2.23,0,0,1,114.73,253.76Z"/>
          <g>
            <path class="cls-13" d="M99.38,78.46c-14.87,4.09-26.35,19.68-28.21,39H74c1.8-17.51,12-31.7,25.34-35.72Z"/>
            <path class="cls-13" d="M114.82,78.46v3.26c14.68,4.43,25.64,21.23,25.64,41.22h2.86C143.32,101.16,131.09,82.92,114.82,78.46Z"/>
          </g>
          <g>
            <path class="cls-14" d="M132.86,135.27A9,9,0,1,0,143.73,129,8.87,8.87,0,0,0,132.86,135.27Z"/>
            <rect class="cls-14" x="139.99" y="122.43" width="3.78" height="7.9" transform="translate(3.91 -4.25) rotate(1.74)"/>
            <path class="cls-15" d="M134,135.56a7.79,7.79,0,1,0,9.45-5.44A7.72,7.72,0,0,0,134,135.56Z"/>
            <path class="cls-16" d="M138,137.4a3.5,3.5,0,1,0,3.6-3.31A3.46,3.46,0,0,0,138,137.4Z"/>
          </g>
          <g>
            <path class="cls-14" d="M88.63,159.31a5.41,5.41,0,0,1-4.11,1.93H77.59v-2.86h6.93a2.63,2.63,0,0,0,2-1,4,4,0,0,0,.87-3.13L83.7,128.35a4.3,4.3,0,0,0-.09-.47c-.84-4.82-4.44-8.27-8.67-8.27h-4c-4.23,0-7.83,3.45-8.68,8.27,0,.16,0,.32-.08.47l-3.64,25.94a4,4,0,0,0,.87,3.13,2.61,2.61,0,0,0,2,1h6.91v2.86H61.36a5.41,5.41,0,0,1-4.11-1.93,6.81,6.81,0,0,1-1.55-5.42L59.34,128a.17.17,0,0,1,0-.07c.94-6.45,5.81-11.14,11.59-11.14h4c5.78,0,10.65,4.69,11.58,11.14a.1.1,0,0,1,0,.07l3.64,25.94A6.84,6.84,0,0,1,88.63,159.31Z"/>
            <path class="cls-13" d="M74.94,116.35h-4c-6,0-11,4.82-12,11.47a.41.41,0,0,0,.1.32.39.39,0,0,0,.29.13h2.91a.38.38,0,0,0,.39-.32c.81-4.61,4.29-8,8.29-8h4c4,0,7.48,3.34,8.29,8a.38.38,0,0,0,.38.32h2.91a.4.4,0,0,0,.3-.13.37.37,0,0,0,.09-.32C86,121.17,80.92,116.35,74.94,116.35Z"/>
            <g>
              <path class="cls-13" d="M68.34,162.17h0a1.92,1.92,0,0,1-1.91-1.91v-1a1.92,1.92,0,0,1,1.91-1.91h0a1.92,1.92,0,0,1,1.91,1.91v1A1.92,1.92,0,0,1,68.34,162.17Z"/>
              <path class="cls-13" d="M77.54,162.17h0a1.92,1.92,0,0,1-1.91-1.91v-1a1.92,1.92,0,0,1,1.91-1.91h0a1.92,1.92,0,0,1,1.91,1.91v1A1.92,1.92,0,0,1,77.54,162.17Z"/>
            </g>
          </g>
          <g>
            <rect class="cls-12" x="69.58" y="208.88" width="20.47" height="1.57"/>
            <rect class="cls-12" x="124.16" y="208.88" width="20.47" height="1.57"/>
          </g>
          <g>
            <path class="cls-13" d="M133.73,19.81C133,14,126.79,4.46,116.82,3a46.07,46.07,0,0,0-10-.38,46,46,0,0,0-10,.38c-10,1.45-16.16,11-16.92,16.8s.76,18.11.76,18.11l1.14,7.47L103.26,48l0,.85,3.52-.42,3.51.42,0-.85,21.45-2.57L133,37.92S134.49,25.58,133.73,19.81Z"/>
            <g>
              <g>
                <path class="cls-17" d="M85.4,39.44s-2.79-4.64-5.87-3.58-5.68,12.7,6.58,15.77C86.11,51.63,88.72,44.3,85.4,39.44Z"/>
                <path class="cls-4" d="M86,43.69s-2.27-5.22-4.55-4.53S80.32,42,82.4,43a4.47,4.47,0,0,0,0,4c1.14,1.86,4.45,2.36,4.45,2.36l.09-4.33Z"/>
              </g>
              <g>
                <path class="cls-17" d="M128.25,39.44s2.8-4.64,5.88-3.58,5.67,12.7-6.58,15.77C127.55,51.63,124.94,44.3,128.25,39.44Z"/>
                <path class="cls-4" d="M127.66,43.69s2.27-5.22,4.54-4.53,1.14,2.86-.94,3.84a4.5,4.5,0,0,1,0,4c-1.14,1.86-4.45,2.36-4.45,2.36l-.1-4.33Z"/>
              </g>
            </g>
            <path class="cls-3" d="M131.19,29.46c-.19.77-.51,2.09-.85,3.76-1.1,5.24-2.55,14-1.45,19.57,1.56,8-2,23-16.8,23.35H101.57c-14.8-.32-18.36-15.37-16.81-23.35,1.44-7.42-1.5-20.15-2.29-23.33v0c-.06-.8-1-14.1,2-17.55a18.86,18.86,0,0,1,3.37-3c3.57-2.56,9-4.74,17.08-4.74h3.72a38,38,0,0,1,6,.44c7.49,1.18,12,4.45,14.45,7.32C132.26,15.43,131.19,29.46,131.19,29.46Z"/>
            <path class="cls-4" d="M131.19,29.46c-.19.77-.51,2.09-.85,3.76-4.92-3.1-9.18-11-9.18-11-10.76,6.69-38.06,8.4-38.06,8.4l-.63-1.15c-.06-.8-1-14.1,2-17.55a18.86,18.86,0,0,1,3.37-3l26.8-4.3c7.49,1.18,12,4.45,14.45,7.32C132.26,15.43,131.19,29.46,131.19,29.46Z"/>
            <path class="cls-18" d="M112,46.28c0,1.25-2.35,2.27-5.25,2.27s-5.25-1-5.25-2.27S103.81,44,106.71,44,112,45,112,46.28Z"/>
            <g>
              <path class="cls-13" d="M85,24.8s1.8,15.15.85,20.66l-1.51-1S82.27,35,81.7,32.43s-1-5.09-1-5.09Z"/>
              <path class="cls-13" d="M128.64,24.8s-1.79,15.15-.85,20.66l1.52-1S131.39,35,132,32.43s.94-5.09.94-5.09Z"/>
            </g>
            <path class="cls-13" d="M133.74,17.37c-.25-2.84-5-16.07-12.87-13.7C118.77-.78,111.63,0,104.76.13,96.45.27,87.09,3.55,82.61,9.68s-1.88,19.84-1.88,19.84c16.47-1.89,34.79-8,41.52-13.25,2,3.52,5,10.1,10.35,12.07C132.6,28.34,134,20.36,133.74,17.37Z"/>
          </g>
          <g>
            <path class="cls-3" d="M172.68,268.6c-.6,6.57-2.14,9.38-3.36,9.92a1,1,0,0,1-.7.06A4.27,4.27,0,0,1,165,280.8a1.63,1.63,0,0,1-.82-.27,3.37,3.37,0,0,1-.27.34,2.65,2.65,0,0,1-2,1.18,2.5,2.5,0,0,1-2.52-.91,4.08,4.08,0,0,1-.68-2.63,2.12,2.12,0,0,1-1.88.46c-2.25-.78-1.81-5-1.81-5a75.13,75.13,0,0,1,1-8.73c.81-4.34-.51-11.6-.64-12.17,0,.55-1.8,7.05-4.74,9.69s-5.3,1.06-4.52-1.32,1.05-6.87,1.83-9.75a15.49,15.49,0,0,1,3.76-6.88c2.16-2.49,4.55-4.39,6.41-8.39a12.18,12.18,0,0,0,.75-2.38c.16-.62.28-1.29.39-2l13.36.45c0,1.39-.11,2.84-.18,4.27-.1,1.84-.21,3.67-.37,5.38C172.56,251,173.14,263.39,172.68,268.6Z"/>
            <path class="cls-4" d="M172.6,232.49c0,1.39-.11,2.84-.18,4.27-4.35-.77-10.15-2-13.57-2.74.16-.62.28-1.29.39-2Z"/>
            <path class="cls-4" d="M162.22,264.36c-.34,3.46-2.25,13.55-2.86,16.78a4,4,0,0,1-.68-2.63s2.41-10.92,2.86-14.42a73.66,73.66,0,0,0,.05-10A48,48,0,0,1,162.22,264.36Z"/>
            <path class="cls-4" d="M166.85,268.28c-.23,2.46-1.11,7.94-1.88,12.52a1.63,1.63,0,0,1-.82-.27,3.37,3.37,0,0,1-.27.34c.75-3.89,2-10.25,2.28-12.89a85.82,85.82,0,0,0,.1-11.14A59.6,59.6,0,0,1,166.85,268.28Z"/>
            <path class="cls-4" d="M171.13,268.68a60.79,60.79,0,0,1-1.82,9.84,1,1,0,0,1-.68.06s1.83-8.65,1.94-10-.29-10.62-.29-10.62A77.05,77.05,0,0,1,171.13,268.68Z"/>
          </g>
          <g>
            <path class="cls-13" d="M98.49,42.11a.86.86,0,0,1-.83-.65,3.66,3.66,0,0,0-2-2.75,2,2,0,0,0-1.78.42,4.48,4.48,0,0,0-1.3,2.08.86.86,0,0,1-1.07.55A.87.87,0,0,1,91,40.69a6,6,0,0,1,1.86-2.88,3.62,3.62,0,0,1,3.35-.72,5.19,5.19,0,0,1,3.1,4,.85.85,0,0,1-.63,1A.68.68,0,0,1,98.49,42.11Z"/>
            <path class="cls-13" d="M115.17,42.11a.84.84,0,0,0,.82-.65,3.69,3.69,0,0,1,2-2.75,1.93,1.93,0,0,1,1.77.42A4.42,4.42,0,0,1,121,41.21a.85.85,0,1,0,1.61-.52,6,6,0,0,0-1.85-2.88,3.63,3.63,0,0,0-3.35-.72,5.19,5.19,0,0,0-3.1,4,.85.85,0,0,0,.63,1A.65.65,0,0,0,115.17,42.11Z"/>
          </g>
          <g>
            <path class="cls-13" d="M90.51,32.92c.59.27,1.19-.22,1.69-.52A5.75,5.75,0,0,1,96.63,32c.69.19,1.93,1.08,2.6,1s1.34-2,1.26-2.77a5.28,5.28,0,0,0-3.14-1.48,8.86,8.86,0,0,0-3.92-.28,8.42,8.42,0,0,0-3.16,1.27,1.71,1.71,0,0,0-.59,1.66A1.9,1.9,0,0,0,90.51,32.92Z"/>
            <path class="cls-13" d="M123.14,32.92c-.58.27-1.18-.22-1.68-.52A5.77,5.77,0,0,0,117,32c-.68.19-1.92,1.08-2.59,1s-1.34-2-1.26-2.77a5.28,5.28,0,0,1,3.14-1.48,8.85,8.85,0,0,1,3.92-.28,8.37,8.37,0,0,1,3.15,1.27,1.7,1.7,0,0,1,.6,1.66A1.91,1.91,0,0,1,123.14,32.92Z"/>
          </g>
          <path class="cls-5" d="M96.78,55.58c.2,4.53,4.62,8.16,10,8.16s9.84-3.63,10-8.16Z"/>
        </g>
      </g>
    </g>
  </g>
</svg>
