<svg id="Group_286" data-name="Group 286" xmlns="http://www.w3.org/2000/svg" xmlns:xlink="http://www.w3.org/1999/xlink" width="326.191" height="323.986" viewBox="0 0 326.191 323.986">
  <defs>
    <clipPath id="clip-path">
      <ellipse id="Ellipse_41" data-name="Ellipse 41" cx="83.021" cy="83.021" rx="83.021" ry="83.021" transform="translate(154.853 214.775) rotate(-158.846)" fill="none"/>
    </clipPath>
  </defs>
  <g id="Group_285" data-name="Group 285" transform="translate(0 0)">
    <path id="Path_488" data-name="Path 488" d="M233.261,361.2c63.942,4.1,167.8-33.756,129.1-94.722-29.979-47.22-5.526-80.738,9.993-95,27.313-25.095-1.207-88.975-130.337-80.737-117.915,7.521-161.648,86.132-146.8,156.8C108.542,310.939,159.875,356.5,233.261,361.2Z" transform="translate(-92.425 -90.018)" fill="#b3bfec"/>
    <g id="Group_283" data-name="Group 283" transform="translate(34.273 30.519)">
      <g id="Group_282" data-name="Group 282" transform="translate(36.101 43.616)" opacity="0.34">
        <path id="Path_501" data-name="Path 501" d="M328.855,222.955c6.928-12.408,6.381-25.9-1.222-30.152s-19.38,2.368-26.307,14.776-6.379,25.9,1.221,30.144S321.926,235.359,328.855,222.955Z" transform="translate(-296.468 -175.24)" fill="#5758db"/>
        <path id="Path_502" data-name="Path 502" d="M297.608,186.3a7.894,7.894,0,1,0-11.34,1.559A8.1,8.1,0,0,0,297.608,186.3Z" transform="translate(-250.614 -173.244)" fill="#5758db"/>
      </g>
      <g id="Group_277" data-name="Group 277" transform="translate(166.702 168.25)">
        <rect id="Rectangle_49" data-name="Rectangle 49" width="33.868" height="11.022" transform="translate(23.948 31.742) rotate(-135)" fill="#2e2562"/>
        <rect id="Rectangle_50" data-name="Rectangle 50" width="127.02" height="26.578" transform="translate(106.423 125.217) rotate(-135)" fill="#2e2562"/>
        <rect id="Rectangle_51" data-name="Rectangle 51" width="8.858" height="26.58" transform="translate(22.869 41.664) rotate(-135)" fill="#5758db"/>
      </g>
      <g id="Group_281" data-name="Group 281" transform="translate(0 0)">
        <g id="Group_280" data-name="Group 280" clip-path="url(#clip-path)">
          <g id="Group_279" data-name="Group 279" transform="translate(36.301 35.461)">
            <path id="Path_489" data-name="Path 489" d="M274.159,204.627c21.855-33.942,1.921-47.624-13.718-37.025-13.06,8.86-26.075-3.512-36.894,6.936-8.587,8.289-6.861,15.553,1.031,36.309C233.11,233.274,274.159,204.627,274.159,204.627Z" transform="translate(-176.73 -164.089)" fill="#2e2562"/>
            <path id="Path_490" data-name="Path 490" d="M270.678,245.562H239.523l-7.15-48.95h46.982Z" transform="translate(-185.216 -167.642)" fill="#f98"/>
            <path id="Path_491" data-name="Path 491" d="M287.058,209.616s-5.959-2.426-5.959,2.445c0,6.157,7.836,10.38,7.836,10.38Z" transform="translate(-238.2 -168.996)" fill="#f98"/>
            <path id="Path_492" data-name="Path 492" d="M229.813,209.725s6.375-2.528,6.375,2.343c0,6.157-8.632,10.38-8.632,10.38Z" transform="translate(-137.759 -169.003)" fill="#f98"/>
            <g id="Group_278" data-name="Group 278" transform="translate(66.257 45.466)">
              <path id="Path_493" data-name="Path 493" d="M259.971,227.539a75.22,75.22,0,0,1-2.009-12.408,74.987,74.987,0,0,1,3.543,12.059c.391,1.836.761,3.6,1.053,4.977q-1.121.084-2.176.17c-.448.023-.876.045-1.29.068-.834.027-1.6.049-2.3.07a29.431,29.431,0,0,1-3.329-.1,29.265,29.265,0,0,1,3.24-.765c.689-.124,1.448-.255,2.267-.4.411-.06.839-.126,1.276-.192.612-.082.534-.091.568-.109-.027-.064-.027-.013-.065-.132-.08-.323-.162-.663-.251-1.013C260.329,229.062,260.152,228.307,259.971,227.539Z" transform="translate(-253.462 -215.131)" fill="#db6b63"/>
            </g>
            <rect id="Rectangle_52" data-name="Rectangle 52" width="15.243" height="14.84" transform="translate(62.599 75.184)" fill="#f98"/>
            <path id="Path_494" data-name="Path 494" d="M191.449,368.686l24.2-68.517-8.587,68.517h81.207l-5.776-67.105,26.317,67.105h11.813L295.643,260.113H203.2L178.451,368.686" transform="translate(-178.451 -174.578)" fill="#fff"/>
            <path id="Path_495" data-name="Path 495" d="M266.906,260.113l-6.98,11.687,14.063-.995s1.386-8.25-3-10.692Z" transform="translate(-204.602 -174.578)" fill="#399aaa"/>
            <path id="Path_496" data-name="Path 496" d="M243.306,270.161l12.236,3.2L249.6,260.113h-6.29Z" transform="translate(-171.142 -174.578)" fill="#399aaa"/>
            <path id="Path_497" data-name="Path 497" d="M251.859,260.113s5.428,24.615,12.592,0Z" transform="translate(-187.67 -174.578)" fill="#a0efd7"/>
            <path id="Path_498" data-name="Path 498" d="M254.7,271.9l-8.081,66.91,9.78,9.966,10.362-9.82-9.284-67.7S255.231,268.266,254.7,271.9Z" transform="translate(-185.312 -175.669)" fill="#a0efd7"/>
            <path id="Path_499" data-name="Path 499" d="M265.911,251.565H250.668v4.685l15.243-3.052Z" transform="translate(-188.069 -173.645)" fill="#db6b63"/>
          </g>
        </g>
      </g>
      <path id="Path_500" data-name="Path 500" d="M245.786,130.714A101.656,101.656,0,1,1,144.13,232.37,101.657,101.657,0,0,1,245.786,130.714Zm0,184.677a83.022,83.022,0,1,0-83.021-83.021A83.022,83.022,0,0,0,245.786,315.391Z" transform="translate(-138.399 -124.982)" fill="#2e2562"/>
    </g>
    <g id="Group_284" data-name="Group 284" transform="translate(267.97 102.371)">
      <path id="Path_503" data-name="Path 503" d="M89.558,226.2C84.7,202.4,110.8,199.361,113.16,213.207,116.252,231.4,93.638,246.168,89.558,226.2Z" transform="translate(-88.957 -204.943)" fill="#5758db"/>
      <path id="Path_504" data-name="Path 504" d="M108.956,251.321c9.659,2.752,3.564,13.1-1.929,11.317C99.81,260.3,100.845,249.012,108.956,251.321Z" transform="translate(-101.336 -209.975)" fill="#5758db"/>
    </g>
  </g>
</svg>
